<svg xmlns="http://www.w3.org/2000/svg" width="46.421" height="69.631" viewBox="0 0 46.421 69.631"><defs><style>.a{fill:#e74c3c;}.b{fill:#c0392b;}</style></defs><g transform="translate(-4 -1028.4)"><path class="a" d="M27.21,0A23.158,23.158,0,0,0,6.992,34.543c.313.557.641,1.105,1,1.633L27.21,69.631,46.431,36.176c.3-.438.551-.9.815-1.361l.183-.273A23.159,23.159,0,0,0,27.21,0Zm0,11.605A11.605,11.605,0,1,1,15.605,23.21,11.606,11.606,0,0,1,27.21,11.605Z" transform="translate(0 1028.4)"/><path class="b" d="M21.506,3A14.506,14.506,0,1,0,36.013,17.506,14.507,14.507,0,0,0,21.506,3Zm0,5.8a8.7,8.7,0,1,1-8.7,8.7A8.7,8.7,0,0,1,21.506,8.8Z" transform="translate(5.704 1034.104)"/></g></svg>